# xmcd
#
# Track frame offsets: 
#        150
#        13233
#        27697
#        38367
#        53850
#        69261
#        83117
#        96909
#        110997
#        124555
#        136312
#        148537
#        161225
#        171869
#        185603
#        198963
#        228040
#        239789
#        251618
#        264804
#        278070
#
# Disc length: 3884 seconds
#
# Revision: 2
# Processed by: cddbd v1.5.2PL0 Copyright (c) Steve Scherf et al.
# Submitted via: ExactAudioCopyFreeDBPlugin 1.0
#
DISCID=290f2a15
DTITLE=Various Artist - CD 06 The Black Train - Railroad's rhythm
DYEAR=2009
DGENRE=Jazz
TTITLE0=Duke Ellington - Take The A Train
TTITLE1=Peggy Lee, Johny Mercer, Margaret Whiting and Benny goodman - Th
TTITLE1=e Freedom Train
TTITLE2=Django Reinhardt and Stephane Grappelli - Mystery Pacific
TTITLE3=Glenn Miller - Chattanooga Choo-Choo
TTITLE4=Count Basie - Super Chief
TTITLE5=Louis Armstrong - Hobo, You Can't Ride This Train
TTITLE6=Louis Jordan - Texas And Pacific
TTITLE7=Johnny Mercer - On The Atchinson, Topeka And The Santa Fe
TTITLE8=Meade Lux Lewis - Honky Tonk Train Blues
TTITLE9=Golden Gate Quartet - Golden Gate Gospel Train
TTITLE10=Louis Jordan - Choo-Choo Ch'Boogie
TTITLE11=Sister Rosetta Tharpe - This Train
TTITLE12=Marie Knight - Gospel Train
TTITLE13=Elder R. Wilson and Family - This Train 2
TTITLE14=Jimmie Rodgers - Train Whistle Blues
TTITLE15=Duke Ellington - Happy Go Lucky Local
TTITLE16=Nat King Cole - There's A Train Out For Dreamland
TTITLE17=Luckey Roberts - Railroad Blues
TTITLE18=Duke Ellington - Daybreak Express
TTITLE19=Frankie Trumbauer - Choo-Choo
TTITLE20=Count Basie - Red Wagon
EXTD=
EXTT0=
EXTT1=
EXTT2=
EXTT3=
EXTT4=
EXTT5=
EXTT6=
EXTT7=
EXTT8=
EXTT9=
EXTT10=
EXTT11=
EXTT12=
EXTT13=
EXTT14=
EXTT15=
EXTT16=
EXTT17=
EXTT18=
EXTT19=
EXTT20=
PLAYORDER=
